<svg width="28" height="58" viewBox="0 0 28 58" fill="none" xmlns="http://www.w3.org/2000/svg">
<path d="M27.6235 28.7648C27.5734 28.1879 27.3415 27.6418 26.9611 27.2051L5.08331 1.90889C4.85189 1.62408 4.56553 1.38874 4.24126 1.2169C3.917 1.04507 3.56145 0.94025 3.19584 0.908684C2.83022 0.877121 2.46197 0.919456 2.11306 1.03318C1.76415 1.1469 1.4417 1.32967 1.1649 1.57062C0.888101 1.81156 0.662608 2.10575 0.501876 2.43566C0.341143 2.76556 0.248442 3.12444 0.229304 3.49092C0.210166 3.8574 0.265007 4.22398 0.390502 4.56884C0.515997 4.91369 0.709607 5.22976 0.959806 5.49823L21.278 28.9998L0.959808 52.5014C0.709609 52.7699 0.515999 53.0859 0.390504 53.4308C0.265009 53.7756 0.210168 54.1422 0.229306 54.5087C0.248445 54.8752 0.341146 55.2341 0.501878 55.564C0.66261 55.8939 0.888103 56.1881 1.1649 56.429C1.44171 56.67 1.76415 56.8527 2.11306 56.9664C2.46198 57.0802 2.83022 57.1225 3.19584 57.0909C3.56146 57.0594 3.917 56.9546 4.24127 56.7827C4.56553 56.6109 4.8519 56.3755 5.08331 56.0907L26.9611 30.7945C27.202 30.5179 27.3848 30.1956 27.4986 29.8469C27.6124 29.4982 27.6548 29.1302 27.6235 28.7648Z" fill="white"/>
</svg>
