<svg width="42" height="42" viewBox="0 0 42 42" fill="none" xmlns="http://www.w3.org/2000/svg">
<path d="M20.9998 41.1262L12.8528 32.9791L15.1144 30.7175L18.563 34.166L19.4165 35.0196V33.8125V23.0833V22.5833H18.9165H8.23942H7.02044L7.88831 23.4393L11.332 26.8357L9.02067 29.147L0.873611 21L8.96859 12.905L11.2302 15.1666L7.83378 18.5631L6.98023 19.4166H8.18734H18.9165H19.4165V18.9166V8.18746V6.98035L18.563 7.83391L15.1144 11.2824L12.8528 9.02079L20.9998 0.873733L29.1469 9.02079L26.8853 11.2824L23.4367 7.83391L22.5832 6.98035V8.18746V18.9166V19.4166H23.0832H33.7603H34.9792L34.1114 18.5606L30.6677 15.1642L32.979 12.8529L41.1261 21L32.979 29.147L30.7174 26.8854L34.1659 23.4368L35.0194 22.5833H33.8123H23.0832H22.5832V23.0833V33.7604V34.9794L23.4392 34.1115L26.8356 30.6678L29.1469 32.9791L20.9998 41.1262Z" stroke="white"/>
</svg>
