<svg width="46" height="46" viewBox="0 0 46 46" fill="none" xmlns="http://www.w3.org/2000/svg">
<path d="M15.8125 38.8124C15.8125 39.1937 15.6611 39.5593 15.3915 39.8289C15.1219 40.0985 14.7563 40.2499 14.375 40.2499H7.18752C6.80627 40.2499 6.44064 40.0985 6.17106 39.8289C5.90147 39.5593 5.75002 39.1937 5.75002 38.8124V31.6249C5.75002 31.2437 5.90147 30.878 6.17106 30.6084C6.44064 30.3389 6.80627 30.1874 7.18752 30.1874C7.56877 30.1874 7.93441 30.3389 8.20399 30.6084C8.47357 30.878 8.62502 31.2437 8.62502 31.6249V35.3703L16.2625 27.7336C16.5336 27.4717 16.8967 27.3269 17.2736 27.3301C17.6505 27.3334 18.0111 27.4846 18.2776 27.7511C18.5441 28.0176 18.6953 28.3782 18.6986 28.7551C18.7018 29.132 18.5569 29.4951 18.2951 29.7662L10.6864 37.3749H14.375C14.7563 37.3749 15.1219 37.5264 15.3915 37.7959C15.6611 38.0655 15.8125 38.4312 15.8125 38.8124Z" fill="black"/>
<path d="M38.8125 15.8125C38.4313 15.8125 38.0656 15.661 37.796 15.3915C37.5265 15.1219 37.375 14.7562 37.375 14.375V10.6864L29.7663 18.2951C29.4952 18.5569 29.1321 18.7018 28.7552 18.6985C28.3783 18.6953 28.0177 18.5441 27.7512 18.2776C27.4847 18.011 27.3335 17.6505 27.3302 17.2736C27.3269 16.8967 27.4718 16.5336 27.7337 16.2624L35.3711 8.625H31.625C31.2438 8.625 30.8781 8.47355 30.6085 8.20397C30.339 7.93438 30.1875 7.56875 30.1875 7.1875C30.1875 6.80625 30.339 6.44062 30.6085 6.17103C30.8781 5.90145 31.2438 5.75 31.625 5.75H38.8125C39.1937 5.75 39.5594 5.90145 39.829 6.17103C40.0985 6.44062 40.25 6.80625 40.25 7.1875V14.375C40.25 14.7562 40.0985 15.1219 39.829 15.3915C39.5594 15.661 39.1937 15.8125 38.8125 15.8125Z" fill="black"/>
<path d="M38.8125 40.2499H31.625C31.2438 40.2499 30.8781 40.0985 30.6085 39.8289C30.339 39.5593 30.1875 39.1937 30.1875 38.8124C30.1875 38.4312 30.339 38.0655 30.6085 37.7959C30.8781 37.5264 31.2438 37.3749 31.625 37.3749H35.3136L27.7049 29.7662C27.4431 29.4951 27.2982 29.132 27.3015 28.7551C27.3047 28.3782 27.4559 28.0176 27.7224 27.7511C27.989 27.4846 28.3495 27.3334 28.7264 27.3301C29.1033 27.3269 29.4664 27.4717 29.7376 27.7336L37.375 35.371V31.6249C37.375 31.2437 37.5265 30.878 37.796 30.6084C38.0656 30.3389 38.4313 30.1874 38.8125 30.1874C39.1937 30.1874 39.5594 30.3389 39.829 30.6084C40.0985 30.878 40.25 31.2437 40.25 31.6249V38.8124C40.25 39.1937 40.0985 39.5593 39.829 39.8289C39.5594 40.0985 39.1937 40.2499 38.8125 40.2499Z" fill="black"/>
<path d="M15.8125 7.1875C15.8125 7.56875 15.6611 7.93438 15.3915 8.20397C15.1219 8.47355 14.7563 8.625 14.375 8.625H10.6289L18.2663 16.2624C18.4036 16.395 18.5132 16.5537 18.5885 16.729C18.6638 16.9044 18.7035 17.0931 18.7051 17.2839C18.7068 17.4748 18.6704 17.6641 18.5982 17.8407C18.5259 18.0174 18.4191 18.1779 18.2842 18.3129C18.1492 18.4479 17.9887 18.5546 17.812 18.6269C17.6354 18.6991 17.4461 18.7355 17.2552 18.7339C17.0643 18.7322 16.8757 18.6925 16.7003 18.6172C16.5249 18.5419 16.3663 18.4324 16.2337 18.2951L8.62504 10.6864V14.375C8.62504 14.7562 8.47359 15.1219 8.204 15.3915C7.93442 15.661 7.56878 15.8125 7.18753 15.8125C6.80629 15.8125 6.44065 15.661 6.17107 15.3915C5.90148 15.1219 5.75003 14.7562 5.75003 14.375V7.1875C5.75003 6.80625 5.90148 6.44062 6.17107 6.17103C6.44065 5.90145 6.80629 5.75 7.18753 5.75H14.375C14.7563 5.75 15.1219 5.90145 15.3915 6.17103C15.6611 6.44062 15.8125 6.80625 15.8125 7.1875Z" fill="black"/>
</svg>
