<svg width="22" height="22" viewBox="0 0 22 22" fill="none" xmlns="http://www.w3.org/2000/svg">
<path fill-rule="evenodd" clip-rule="evenodd" d="M6.41403 1.48858C8.13375 0.496419 10.0593 0.000813963 12.0166 0.0259746C12.5402 0.0324959 12.6557 0.766604 12.1657 0.938007C7.04292 2.7304 4.77155 8.7495 7.50202 13.4811L7.50295 13.4802C9.90096 17.6352 15.2148 19.0578 19.3659 16.6617L19.365 16.6607L20.6981 15.7152C21.0931 15.376 21.68 15.8474 21.4033 16.3179C20.3739 18.0665 19.1395 19.3846 17.3425 20.4225L17.3435 20.4235C12.1143 23.4428 5.4321 21.6532 2.41186 16.4233L2.41093 16.4242C-0.638161 11.1412 1.28559 4.33734 6.41403 1.48858Z" fill="white"/>
</svg>
