<svg width="29" height="30" viewBox="0 0 29 30" fill="none" xmlns="http://www.w3.org/2000/svg">
<path d="M17.7871 13.6744C17.7871 13.4074 17.5716 13.1919 17.3046 13.1919C12.933 13.1919 9.37851 8.98115 9.37851 3.80218C9.37851 3.53519 9.16299 3.31967 8.896 3.31967C8.629 3.31967 8.41348 3.53519 8.41348 3.80218C8.41348 8.98115 4.85575 13.1919 0.487396 13.1919C0.2204 13.1919 0.00488281 13.4074 0.00488281 13.6744C0.00488281 13.9414 0.2204 14.1569 0.487396 14.1569C4.85575 14.1569 8.41348 18.3676 8.41348 23.5466C8.41348 23.8136 8.629 24.0291 8.896 24.0291C9.16299 24.0291 9.37851 23.8136 9.37851 23.5466C9.37851 18.3676 12.933 14.1569 17.3046 14.1569C17.5716 14.1569 17.7871 13.9414 17.7871 13.6744Z" fill="white"/>
<path d="M16.0216 4.90876C17.6074 4.90876 18.8974 6.46244 18.8974 8.36997C18.8974 8.63697 19.1129 8.85249 19.3799 8.85249C19.6468 8.85249 19.8624 8.63697 19.8624 8.36997C19.8624 6.46244 21.1523 4.90876 22.7381 4.90876C23.0051 4.90876 23.2207 4.69323 23.2207 4.42625C23.2207 4.15925 23.0051 3.94374 22.7381 3.94374C21.1523 3.94374 19.8624 2.39004 19.8624 0.482505C19.8624 0.215509 19.6468 -7.62939e-06 19.3799 -7.62939e-06C19.1129 -7.62939e-06 18.8974 0.215509 18.8974 0.482505C18.8974 2.39004 17.6074 3.94374 16.0216 3.94374C15.7546 3.94374 15.5391 4.15925 15.5391 4.42625C15.5391 4.69323 15.7546 4.90876 16.0216 4.90876Z" fill="white"/>
<path d="M28.5116 22.7521C25.8674 22.7521 23.7154 20.1883 23.7154 17.0391C23.7154 16.7721 23.4999 16.5566 23.2329 16.5566C22.9659 16.5566 22.7504 16.7721 22.7504 17.0391C22.7504 20.1883 20.5984 22.7521 17.9542 22.7521C17.6872 22.7521 17.4717 22.9708 17.4717 23.2346C17.4717 23.5016 17.6872 23.7171 17.9542 23.7171C20.5984 23.7171 22.7504 26.2809 22.7504 29.4333C22.7504 29.7003 22.9659 29.9158 23.2329 29.9158C23.4999 29.9158 23.7154 29.7003 23.7154 29.4333C23.7154 26.2809 25.8674 23.7171 28.5116 23.7171C28.7786 23.7171 28.9941 23.5016 28.9941 23.2346C28.9941 22.9708 28.7786 22.7521 28.5116 22.7521Z" fill="white"/>
</svg>
