<svg width="62" height="62" viewBox="0 0 62 62" fill="none" xmlns="http://www.w3.org/2000/svg">
<g clip-path="url(#clip0_295_487)">
<path d="M28.0566 5.80712L31.0702 24.0909L31.2775 25.3382L31.7446 24.1608L38.5867 6.92867L33.8626 24.8526L33.5394 26.0755L34.4491 25.188L47.7469 12.2115L36.1034 26.6729L35.3097 27.6617L36.5003 27.218L53.9532 20.7437L37.403 29.2445L36.272 29.8245L37.5435 29.9013L56.1344 31.0508L37.54 32.12L36.2685 32.1934L37.396 32.7803L53.9111 41.351L36.4863 34.8033L35.2956 34.3561L36.0859 35.3484L47.6661 49.8587L34.4245 36.8298L33.5184 35.9389L33.8345 37.1652L38.4813 55.1066L31.713 37.8431L31.2494 36.6656L31.0386 37.9129L27.9478 56.1863L28.8223 37.6789L28.8821 36.414L28.1796 37.4692L17.8849 52.9124L26.2513 36.3581L26.8238 35.2261L25.749 35.9039L10.0313 45.8442L24.4424 34.1046L25.4259 33.3044L24.1685 33.4896L5.74269 36.2114L23.7084 31.3199L24.9342 30.9845L23.7084 30.6455L5.76377 25.6772L24.1755 28.4758L25.4329 28.668L24.453 27.8609L10.091 16.0723L25.7666 26.079L26.8379 26.7638L26.2724 25.6317L17.9762 9.0425L28.2042 24.5277L28.9031 25.5863L28.8504 24.3215L28.0566 5.81061M27.4525 0.000183105L28.4992 24.332L15.0539 3.97978L25.9598 25.7855L5.35282 12.6308L24.2317 28.1404L0.0280988 24.4613L23.6135 30.9914L0 37.4238L24.2176 33.846L5.27555 49.2752L25.9352 36.2079L14.938 57.9682L28.4711 37.6719L27.3226 62.0002L31.3864 37.9828L40.2831 60.6725L34.1752 37.0884L51.5824 54.2157L36.3598 35.1423L59.2639 43.7478L37.5576 32.4834L62 31.0753L37.5646 29.5659L59.3201 18.3923L36.3809 26.9L51.6842 7.8895L34.2068 24.9434L40.4096 1.38378L31.4145 24.035L27.4525 0.000183105Z" fill="black"/>
</g>
<defs>
<clipPath id="clip0_295_487">
<rect width="62" height="62" fill="white" />
</clipPath>
</defs>
</svg>
