<svg width="62" height="48" viewBox="0 0 62 48" fill="none" xmlns="http://www.w3.org/2000/svg">
<path d="M51.053 24.6341C49.274 23.8767 47.812 22.4148 47.0546 20.627C46.9225 20.3276 46.6319 20.125 46.2972 20.125H14.8745C14.5486 20.125 14.2492 20.3187 14.1171 20.627C13.3597 22.4059 11.8978 23.8679 10.1187 24.6341C9.81931 24.7662 9.61676 25.0568 9.61676 25.3915V36.4704C9.61676 36.7962 9.81051 37.0956 10.1187 37.2278C11.8977 37.9852 13.3597 39.4471 14.1171 41.2349C14.2492 41.5343 14.5398 41.7369 14.8745 41.7369H46.2972C46.6231 41.7369 46.9225 41.5431 47.0546 41.2349C47.812 39.4559 49.2739 37.994 51.053 37.2278C51.3524 37.0957 51.5549 36.805 51.5549 36.4704V25.3825C51.5461 25.0566 51.3524 24.7574 51.053 24.6341ZM49.9081 35.9508C48.1291 36.8403 46.6672 38.311 45.7777 40.09H15.4028C14.5133 38.3111 13.0426 36.8403 11.2724 35.9508V25.9113C13.0513 25.0218 14.5133 23.5511 15.4028 21.7721H45.7777C46.6672 23.551 48.1379 25.0218 49.9081 25.9113V35.9508Z" fill="black"/>
<path d="M42.7304 32.7977L18.4501 32.6304C18.0097 32.6392 17.631 32.9914 17.6222 33.4494C17.6222 33.9073 17.9833 34.2773 18.4412 34.2773L42.7215 34.4446H42.7303C43.1795 34.4446 43.5494 34.0835 43.5494 33.6256C43.5494 33.1764 43.1883 32.8066 42.7304 32.7977Z" fill="black"/>
<path d="M36.8121 36.5584L24.3772 36.391C23.8928 36.3822 23.5493 36.7521 23.5493 37.2013C23.5405 37.6592 23.9016 38.0291 24.3595 38.0379L36.7945 38.2052H36.8033C37.2524 38.2052 37.6135 37.8442 37.6223 37.395C37.6311 36.9371 37.2701 36.5671 36.8121 36.5584Z" fill="black"/>
<path d="M55.5355 17.9144L47.081 3.96439C46.9665 3.77945 46.7816 3.64735 46.5702 3.59451C46.3588 3.54167 46.1387 3.57689 45.9449 3.69138C43.9282 4.91555 41.2861 4.27261 40.0617 2.25586C39.8239 1.86836 39.3219 1.74506 38.9344 1.98284L14.4776 16.8397H12.2671C11.818 16.8397 11.4481 17.2096 11.4481 17.6588C11.4481 20.019 9.52824 21.9477 7.16796 21.9477C6.71 21.9477 6.34009 22.3176 6.34009 22.7667V39.0857C6.34009 39.5436 6.70997 39.9047 7.15911 39.9047C9.51934 39.9047 11.4392 41.8246 11.4392 44.1936C11.4392 44.6516 11.8091 45.0126 12.2583 45.0126H48.9037C49.3528 45.0126 49.7227 44.6428 49.7227 44.1936C49.7227 41.8334 51.6425 39.9047 54.0028 39.9047C54.452 39.9047 54.8218 39.5348 54.8218 39.0857V22.7667C54.8218 22.3088 54.452 21.9477 54.0028 21.9477C53.7562 21.9477 53.5272 21.9125 53.2895 21.8772C53.5185 20.7059 54.2142 19.6756 55.2534 19.0415C55.6497 18.8037 55.7733 18.3019 55.5355 17.9144ZM53.193 38.3197C50.5861 38.6808 48.5077 40.7592 48.1467 43.366H13.0253C12.6643 40.7504 10.5947 38.6808 7.97906 38.3197V23.5333C10.5859 23.1722 12.6643 21.0938 13.0253 18.487H48.1467C48.2435 19.1827 48.4637 19.8256 48.7808 20.4245C48.8072 20.4773 48.8336 20.5214 48.8688 20.5742C49.5734 21.8072 50.6918 22.7671 52.0481 23.2515C52.0657 23.2603 52.0745 23.2603 52.0921 23.2691C52.4444 23.3924 52.8054 23.4893 53.1929 23.5421L53.193 38.3197ZM23.9718 16.8401L38.8202 7.8129C40.5023 8.86972 42.5191 9.3629 44.4915 9.20441L49.1503 16.893C49.0799 16.8666 23.9718 16.8401 23.9718 16.8401ZM51.7484 21.2875C51.2287 20.9617 50.7796 20.5301 50.4449 20.0193C50.6739 19.4028 50.9646 18.8216 51.3433 18.2844C51.537 18.0202 51.5458 17.6591 51.3785 17.3861L45.6277 7.91024C45.4604 7.62842 45.1345 7.47871 44.8087 7.52274C42.8976 7.79576 40.8897 7.30257 39.322 6.1841C39.0578 5.99035 38.6967 5.98154 38.4149 6.14888L20.8013 16.8489H17.6396L39.1457 3.77935C39.956 4.77451 41.0656 5.47905 42.3338 5.78731C43.6019 6.09556 44.9054 5.98106 46.0854 5.47026L53.7475 18.1171C52.7524 18.9274 52.0566 20.0369 51.7484 21.2875Z" fill="black"/>
</svg>
